<svg width="110" height="27" viewBox="0 0 110 27" fill="none" xmlns="http://www.w3.org/2000/svg">
<g filter="url(#filter0_d_1_11)">
<path d="M4.26953 4.27734V1.19531H18.4961V4.27734H13.0234V18H9.73047V4.27734H4.26953ZM19.578 18V0.480469H22.6834V7.10156C23.3631 6.07813 24.3944 5.56641 25.7772 5.56641C27.0506 5.56641 28.0233 5.97266 28.6952 6.78516C29.3748 7.58984 29.7147 8.69531 29.7147 10.1016V18H26.5623V10.7812C26.5623 10.0703 26.4139 9.52734 26.117 9.15234C25.828 8.77734 25.4022 8.58984 24.8397 8.58984C24.2069 8.58984 23.6873 8.84375 23.2811 9.35156C22.8827 9.85937 22.6834 10.5977 22.6834 11.5664V18H19.578ZM32.027 18V5.83594H34.7223L35.0036 7.78125C35.2302 7.17969 35.6364 6.68359 36.2223 6.29297C36.8161 5.90234 37.5934 5.70703 38.5544 5.70703V8.83594C37.5622 8.83594 36.7575 9.07422 36.1403 9.55078C35.5309 10.0352 35.2028 10.7891 35.1559 11.8125V18H32.027ZM39.6948 2.26172C39.6948 1.74609 39.8784 1.30859 40.2456 0.949219C40.6128 0.589844 41.0581 0.410156 41.5816 0.410156C42.0972 0.410156 42.5425 0.589844 42.9175 0.949219C43.2925 1.30859 43.48 1.74609 43.48 2.26172C43.48 2.78516 43.2925 3.22266 42.9175 3.57422C42.5503 3.92578 42.105 4.10156 41.5816 4.10156C41.0503 4.10156 40.6011 3.92578 40.2339 3.57422C39.8745 3.22266 39.6948 2.78516 39.6948 2.26172ZM40.023 18V5.83594H43.1519V18H40.023ZM44.1869 5.83594H47.5502L49.9291 13.3008L50.1634 14.3555L50.4095 13.3008L52.7884 5.83594H56.1634L51.7572 18H48.5814L44.1869 5.83594ZM56.0734 11.9297C56.0734 10.0781 56.632 8.55469 57.7492 7.35938C58.8664 6.16406 60.3234 5.56641 62.1203 5.56641C62.9328 5.56641 63.6789 5.69531 64.3586 5.95312C65.0383 6.21094 65.632 6.59766 66.1398 7.11328C66.6477 7.62109 67.0422 8.28516 67.3234 9.10547C67.6125 9.91797 67.757 10.8516 67.757 11.9062V12.8672H59.2844C59.3312 13.6797 59.6203 14.3398 60.1516 14.8477C60.6828 15.3477 61.3703 15.5977 62.2141 15.5977C62.8156 15.5977 63.3312 15.4766 63.7609 15.2344C64.1906 14.9844 64.4914 14.6328 64.6633 14.1797H67.6867C67.3117 15.4844 66.6516 16.4922 65.7062 17.2031C64.7687 17.9141 63.5734 18.2695 62.1203 18.2695C60.3156 18.2695 58.8547 17.6914 57.7375 16.5352C56.6281 15.3789 56.0734 13.8438 56.0734 11.9297ZM59.3078 10.6992H64.6164C64.6008 9.93359 64.3586 9.32031 63.8898 8.85938C63.4289 8.39062 62.8156 8.15625 62.05 8.15625C61.2844 8.15625 60.6516 8.39062 60.1516 8.85938C59.6594 9.32812 59.3781 9.94141 59.3078 10.6992ZM68.2061 8.66016V5.83594H70.1983L70.2217 2.88281H73.3623L73.3389 5.83594H76.128V8.66016H73.3155L73.2686 13.582C73.2686 14.2148 73.3858 14.668 73.6202 14.9414C73.8545 15.207 74.2647 15.3398 74.8506 15.3398C75.2803 15.3398 75.7061 15.2812 76.128 15.1641V17.9062C75.6592 18.0781 75.003 18.1641 74.1592 18.1641C72.792 18.1641 71.7803 17.8633 71.1241 17.2617C70.4678 16.6602 70.1436 15.6836 70.1514 14.332L70.1983 8.66016H68.2061ZM77.0575 14.7656C77.0575 14.1875 77.1473 13.6836 77.327 13.2539C77.5145 12.8164 77.7841 12.457 78.1356 12.1758C78.4872 11.8945 78.8778 11.6719 79.3075 11.5078C79.745 11.3359 80.2489 11.2031 80.8192 11.1094L83.9716 10.5352V10.0781C83.9716 9.48437 83.8231 9.02734 83.5262 8.70703C83.2372 8.38672 82.8153 8.22656 82.2606 8.22656C81.7372 8.22656 81.3036 8.375 80.9598 8.67188C80.6161 8.96875 80.4442 9.35938 80.4442 9.84375H77.4208C77.4911 8.57812 77.9598 7.55078 78.827 6.76172C79.702 5.96484 80.8466 5.56641 82.2606 5.56641C83.745 5.56641 84.9208 5.94531 85.788 6.70312C86.6552 7.45312 87.0887 8.55469 87.0887 10.0078V18H84.4286L84.2294 16.5117C83.4637 17.6836 82.3036 18.2695 80.7489 18.2695C79.6552 18.2695 78.7645 17.9531 78.077 17.3203C77.3973 16.6875 77.0575 15.8359 77.0575 14.7656ZM80.1747 14.4961C80.1747 14.8633 80.2997 15.1562 80.5497 15.375C80.7997 15.5859 81.1473 15.6914 81.5927 15.6914C81.9833 15.6914 82.3505 15.5977 82.6942 15.4102C83.0458 15.2148 83.327 14.9414 83.538 14.5898C83.827 14.1523 83.9716 13.6172 83.9716 12.9844V12.6211L81.5458 13.125C81.1005 13.2266 80.7606 13.3828 80.5262 13.5938C80.2919 13.8047 80.1747 14.1055 80.1747 14.4961ZM89.3073 18V0.480469H92.4362V18H89.3073ZM94.9595 18V0.480469H98.0884V10.7578L101.639 5.83594H105.354L101.78 10.9453L105.975 18H102.424L99.6002 13.3477L98.0884 15.2695V18H94.9595Z" fill="#62D0DF"/>
<path d="M4.26953 4.27734H3.26953V5.27734H4.26953V4.27734ZM4.26953 1.19531V0.195312H3.26953V1.19531H4.26953ZM18.4961 1.19531H19.4961V0.195312H18.4961V1.19531ZM18.4961 4.27734V5.27734H19.4961V4.27734H18.4961ZM13.0234 4.27734V3.27734H12.0234V4.27734H13.0234ZM13.0234 18V19H14.0234V18H13.0234ZM9.73047 18H8.73047V19H9.73047V18ZM9.73047 4.27734H10.7305V3.27734H9.73047V4.27734ZM5.26953 4.27734V1.19531H3.26953V4.27734H5.26953ZM4.26953 2.19531H18.4961V0.195312H4.26953V2.19531ZM17.4961 1.19531V4.27734H19.4961V1.19531H17.4961ZM18.4961 3.27734H13.0234V5.27734H18.4961V3.27734ZM12.0234 4.27734V18H14.0234V4.27734H12.0234ZM13.0234 17H9.73047V19H13.0234V17ZM10.7305 18V4.27734H8.73047V18H10.7305ZM9.73047 3.27734H4.26953V5.27734H9.73047V3.27734ZM19.578 18H18.578V19H19.578V18ZM19.578 0.480469V-0.519531H18.578V0.480469H19.578ZM22.6834 0.480469H23.6834V-0.519531H22.6834V0.480469ZM22.6834 7.10156H21.6834V10.4149L23.5165 7.65479L22.6834 7.10156ZM28.6952 6.78516L27.9245 7.42245L27.9312 7.43043L28.6952 6.78516ZM29.7147 18V19H30.7147V18H29.7147ZM26.5623 18H25.5623V19H26.5623V18ZM26.117 9.15234L25.325 9.7629L25.333 9.77305L26.117 9.15234ZM23.2811 9.35156L22.5002 8.72684L22.4944 8.73428L23.2811 9.35156ZM22.6834 18V19H23.6834V18H22.6834ZM20.578 18V0.480469H18.578V18H20.578ZM19.578 1.48047H22.6834V-0.519531H19.578V1.48047ZM21.6834 0.480469V7.10156H23.6834V0.480469H21.6834ZM23.5165 7.65479C23.9851 6.94913 24.68 6.56641 25.7772 6.56641V4.56641C24.1087 4.56641 22.7411 5.20712 21.8504 6.54833L23.5165 7.65479ZM25.7772 6.56641C26.8208 6.56641 27.4822 6.88756 27.9245 7.42242L29.4658 6.14789C28.5643 5.05775 27.2804 4.56641 25.7772 4.56641V6.56641ZM27.9312 7.43043C28.4139 8.00188 28.7147 8.85178 28.7147 10.1016H30.7147C30.7147 8.53885 30.3358 7.1778 29.4591 6.13988L27.9312 7.43043ZM28.7147 10.1016V18H30.7147V10.1016H28.7147ZM29.7147 17H26.5623V19H29.7147V17ZM27.5623 18V10.7812H25.5623V18H27.5623ZM27.5623 10.7812C27.5623 9.95022 27.3915 9.15112 26.9011 8.53164L25.333 9.77305C25.4363 9.90356 25.5623 10.1904 25.5623 10.7812H27.5623ZM26.909 8.54184C26.394 7.87367 25.6469 7.58984 24.8397 7.58984V9.58984C25.1575 9.58984 25.2619 9.68102 25.325 9.76285L26.909 8.54184ZM24.8397 7.58984C23.8935 7.58984 23.0901 7.98947 22.5002 8.72687L24.062 9.97626C24.2845 9.69803 24.5203 9.58984 24.8397 9.58984V7.58984ZM22.4944 8.73428C21.9037 9.48713 21.6834 10.4809 21.6834 11.5664H23.6834C23.6834 10.7144 23.8617 10.2316 24.0678 9.96885L22.4944 8.73428ZM21.6834 11.5664V18H23.6834V11.5664H21.6834ZM22.6834 17H19.578V19H22.6834V17ZM32.027 18H31.027V19H32.027V18ZM32.027 5.83594V4.83594H31.027V5.83594H32.027ZM34.7223 5.83594L35.7121 5.69285L35.5882 4.83594H34.7223V5.83594ZM35.0036 7.78125L34.0139 7.92434L35.9394 8.13371L35.0036 7.78125ZM36.2223 6.29297L35.6727 5.45754L35.6676 5.46092L36.2223 6.29297ZM38.5544 5.70703H39.5544V4.70703H38.5544V5.70703ZM38.5544 8.83594V9.83594H39.5544V8.83594H38.5544ZM36.1403 9.55078L35.5291 8.7592L35.5181 8.76796L36.1403 9.55078ZM35.1559 11.8125L34.157 11.7667L34.1559 11.7896V11.8125H35.1559ZM35.1559 18V19H36.1559V18H35.1559ZM33.027 18V5.83594H31.027V18H33.027ZM32.027 6.83594H34.7223V4.83594H32.027V6.83594ZM33.7326 5.97903L34.0139 7.92434L35.9933 7.63816L35.7121 5.69285L33.7326 5.97903ZM35.9394 8.13371C36.0852 7.74673 36.3477 7.41124 36.777 7.12502L35.6676 5.46092C34.9251 5.95595 34.3751 6.61265 34.0678 7.42879L35.9394 8.13371ZM36.772 7.12839C37.1543 6.87682 37.7218 6.70703 38.5544 6.70703V4.70703C37.4651 4.70703 36.4778 4.92787 35.6727 5.45755L36.772 7.12839ZM37.5544 5.70703V8.83594H39.5544V5.70703H37.5544ZM38.5544 7.83594C37.402 7.83594 36.3642 8.11447 35.5292 8.75928L36.7515 10.3423C37.1508 10.034 37.7223 9.83594 38.5544 9.83594V7.83594ZM35.5181 8.76796C34.6164 9.48468 34.2126 10.5515 34.157 11.7667L36.1549 11.8583C36.193 11.0266 36.4455 10.5856 36.7626 10.3336L35.5181 8.76796ZM34.1559 11.8125V18H36.1559V11.8125H34.1559ZM35.1559 17H32.027V19H35.1559V17ZM42.9175 3.57422L42.2335 2.84464L42.2259 2.85191L42.9175 3.57422ZM40.2339 3.57422L39.5346 4.28909L39.5423 4.29653L40.2339 3.57422ZM40.023 18H39.023V19H40.023V18ZM40.023 5.83594V4.83594H39.023V5.83594H40.023ZM43.1519 5.83594H44.1519V4.83594H43.1519V5.83594ZM43.1519 18V19H44.1519V18H43.1519ZM40.6948 2.26172C40.6948 2.01395 40.7709 1.83439 40.9451 1.66389L39.5462 0.23455C38.986 0.7828 38.6948 1.47824 38.6948 2.26172H40.6948ZM40.9451 1.66389C41.1215 1.49122 41.3141 1.41016 41.5816 1.41016V-0.589844C40.8021 -0.589844 40.1041 -0.311533 39.5462 0.23455L40.9451 1.66389ZM41.5816 1.41016C41.8372 1.41016 42.0352 1.48878 42.2256 1.67121L43.6094 0.22723C43.0498 -0.309094 42.3571 -0.589844 41.5816 -0.589844V1.41016ZM42.2256 1.67121C42.4054 1.84353 42.48 2.02094 42.48 2.26172H44.48C44.48 1.47125 44.1796 0.773652 43.6094 0.22723L42.2256 1.67121ZM42.48 2.26172C42.48 2.51448 42.4028 2.68606 42.2336 2.84468L43.6014 4.30376C44.1822 3.75926 44.48 3.05583 44.48 2.26172H42.48ZM42.2259 2.85191C42.0509 3.01947 41.8558 3.10156 41.5816 3.10156V5.10156C42.3542 5.10156 43.0497 4.83209 43.6091 4.29653L42.2259 2.85191ZM41.5816 3.10156C41.2952 3.10156 41.0975 3.01657 40.9255 2.85191L39.5423 4.29653C40.1047 4.83499 40.8055 5.10156 41.5816 5.10156V3.10156ZM40.9332 2.85938C40.7748 2.70445 40.6948 2.52853 40.6948 2.26172H38.6948C38.6948 3.04179 38.9742 3.74087 39.5346 4.28905L40.9332 2.85938ZM41.023 18V5.83594H39.023V18H41.023ZM40.023 6.83594H43.1519V4.83594H40.023V6.83594ZM42.1519 5.83594V18H44.1519V5.83594H42.1519ZM43.1519 17H40.023V19H43.1519V17ZM44.1869 5.83594V4.83594H42.7623L43.2464 6.17572L44.1869 5.83594ZM47.5502 5.83594L48.5029 5.5323L48.281 4.83594H47.5502V5.83594ZM49.9291 13.3008L50.9053 13.0839L50.8955 13.04L50.8819 12.9971L49.9291 13.3008ZM50.1634 14.3555L49.1872 14.5724L51.1373 14.5827L50.1634 14.3555ZM50.4095 13.3008L49.4567 12.9971L49.4447 13.0349L49.4357 13.0736L50.4095 13.3008ZM52.7884 5.83594V4.83594H52.0576L51.8356 5.5323L52.7884 5.83594ZM56.1634 5.83594L57.1037 6.17652L57.5893 4.83594H56.1634V5.83594ZM51.7572 18V19H52.4585L52.6974 18.3406L51.7572 18ZM48.5814 18L47.6409 18.3398L47.8794 19H48.5814V18ZM44.1869 6.83594H47.5502V4.83594H44.1869V6.83594ZM46.5974 6.13957L48.9763 13.6044L50.8819 12.9971L48.5029 5.5323L46.5974 6.13957ZM48.9529 13.5177L49.1872 14.5724L51.1396 14.1385L50.9053 13.0839L48.9529 13.5177ZM51.1373 14.5827L51.3834 13.528L49.4357 13.0736L49.1896 14.1282L51.1373 14.5827ZM51.3623 13.6044L53.7412 6.13957L51.8356 5.5323L49.4567 12.9971L51.3623 13.6044ZM52.7884 6.83594H56.1634V4.83594H52.7884V6.83594ZM55.2232 5.49536L50.817 17.6594L52.6974 18.3406L57.1037 6.17652L55.2232 5.49536ZM51.7572 17H48.5814V19H51.7572V17ZM49.5219 17.6602L45.1274 5.49616L43.2464 6.17572L47.6409 18.3398L49.5219 17.6602ZM57.7492 7.35938L57.0186 6.67655L57.7492 7.35938ZM66.1398 7.11328L65.4273 7.81499L65.4327 7.82039L66.1398 7.11328ZM67.3234 9.10547L66.3774 9.42981L66.3813 9.44066L67.3234 9.10547ZM67.757 12.8672V13.8672H68.757V12.8672H67.757ZM59.2844 12.8672V11.8672H58.225L58.286 12.9248L59.2844 12.8672ZM60.1516 14.8477L59.4606 15.5706L59.4662 15.5759L60.1516 14.8477ZM63.7609 15.2344L64.252 16.1056L64.2638 16.0987L63.7609 15.2344ZM64.6633 14.1797V13.1797H63.9731L63.7283 13.825L64.6633 14.1797ZM67.6867 14.1797L68.6478 14.4559L69.0146 13.1797H67.6867V14.1797ZM65.7062 17.2031L65.1052 16.4039L65.102 16.4063L65.7062 17.2031ZM57.7375 16.5352L57.0159 17.2275L57.0183 17.23L57.7375 16.5352ZM59.3078 10.6992L58.3121 10.6068L58.2107 11.6992H59.3078V10.6992ZM64.6164 10.6992V11.6992H65.637L65.6162 10.6788L64.6164 10.6992ZM63.8898 8.85938L63.1768 9.56051L63.1827 9.56651L63.1887 9.5724L63.8898 8.85938ZM60.1516 8.85938L59.4676 8.12982L59.4619 8.13524L60.1516 8.85938ZM57.0734 11.9297C57.0734 10.2957 57.5588 9.02756 58.4798 8.0422L57.0186 6.67655C55.7052 8.08181 55.0734 9.8606 55.0734 11.9297H57.0734ZM58.4798 8.0422C59.3882 7.0703 60.5701 6.56641 62.1203 6.56641V4.56641C60.0767 4.56641 58.3446 5.25783 57.0186 6.67655L58.4798 8.0422ZM62.1203 6.56641C62.8258 6.56641 63.4501 6.67805 64.0039 6.88812L64.7132 5.01813C63.9077 4.71258 63.0398 4.56641 62.1203 4.56641V6.56641ZM64.0039 6.88812C64.5496 7.09508 65.0211 7.40245 65.4274 7.81497L66.8523 6.41159C66.243 5.79286 65.527 5.32679 64.7132 5.01813L64.0039 6.88812ZM65.4327 7.82039C65.8127 8.2004 66.1355 8.7241 66.3775 9.42979L68.2694 8.78114C67.9488 7.84621 67.4826 7.04179 66.847 6.40617L65.4327 7.82039ZM66.3813 9.44066C66.6246 10.1246 66.757 10.9412 66.757 11.9062H68.757C68.757 10.7619 68.6004 9.71134 68.2656 8.77028L66.3813 9.44066ZM66.757 11.9062V12.8672H68.757V11.9062H66.757ZM67.757 11.8672H59.2844V13.8672H67.757V11.8672ZM58.286 12.9248C58.3458 13.9605 58.7261 14.8685 59.4606 15.5705L60.8425 14.1248C60.5145 13.8112 60.3167 13.3989 60.2827 12.8096L58.286 12.9248ZM59.4662 15.5759C60.2119 16.2777 61.1584 16.5977 62.2141 16.5977V14.5977C61.5823 14.5977 61.1537 14.4176 60.8369 14.1195L59.4662 15.5759ZM62.2141 16.5977C62.9501 16.5977 63.6428 16.4489 64.2519 16.1055L63.2699 14.3632C63.0197 14.5042 62.6811 14.5977 62.2141 14.5977V16.5977ZM64.2638 16.0987C64.8862 15.7366 65.3428 15.2078 65.5983 14.5343L63.7283 13.825C63.64 14.0578 63.4951 14.2321 63.258 14.37L64.2638 16.0987ZM64.6633 15.1797H67.6867V13.1797H64.6633V15.1797ZM66.7256 13.9034C66.4014 15.0315 65.8519 15.8423 65.1052 16.4039L66.3073 18.0023C67.4512 17.142 68.222 15.9372 68.6478 14.4559L66.7256 13.9034ZM65.102 16.4063C64.3759 16.957 63.4076 17.2695 62.1203 17.2695V19.2695C63.7393 19.2695 65.1616 18.8712 66.3105 17.9999L65.102 16.4063ZM62.1203 17.2695C60.5503 17.2695 59.3615 16.7768 58.4566 15.8403L57.0183 17.23C58.3479 18.606 60.0809 19.2695 62.1203 19.2695V17.2695ZM58.4591 15.8428C57.5622 14.9081 57.0734 13.6392 57.0734 11.9297H55.0734C55.0734 14.0483 55.694 15.8497 57.0159 17.2275L58.4591 15.8428ZM59.3078 11.6992H64.6164V9.69922H59.3078V11.6992ZM65.6162 10.6788C65.5962 9.69849 65.2765 8.82042 64.591 8.14635L63.1887 9.5724C63.4407 9.8202 63.6054 10.1687 63.6166 10.7196L65.6162 10.6788ZM64.6029 8.15824C63.9229 7.46671 63.0359 7.15625 62.05 7.15625V9.15625C62.5953 9.15625 62.9349 9.31454 63.1768 9.56051L64.6029 8.15824ZM62.05 7.15625C61.0625 7.15625 60.1752 7.46647 59.4676 8.12984L60.8355 9.58891C61.1279 9.31478 61.5062 9.15625 62.05 9.15625V7.15625ZM59.4619 8.13524C58.7735 8.79087 58.4019 9.63923 58.3121 10.6068L60.3035 10.7916C60.3544 10.2436 60.5453 9.86538 60.8412 9.58351L59.4619 8.13524ZM68.2061 8.66016H67.2061V9.66016H68.2061V8.66016ZM68.2061 5.83594V4.83594H67.2061V5.83594H68.2061ZM70.1983 5.83594V6.83594H71.1904L71.1982 5.84387L70.1983 5.83594ZM70.2217 2.88281V1.88281H69.2296L69.2217 2.87488L70.2217 2.88281ZM73.3623 2.88281L74.3623 2.89075L74.3703 1.88281H73.3623V2.88281ZM73.3389 5.83594L72.3389 5.828L72.3309 6.83594H73.3389V5.83594ZM76.128 5.83594H77.128V4.83594H76.128V5.83594ZM76.128 8.66016V9.66016H77.128V8.66016H76.128ZM73.3155 8.66016V7.66016H72.3249L72.3155 8.65063L73.3155 8.66016ZM73.2686 13.582L72.2686 13.5725V13.582H73.2686ZM73.6202 14.9414L72.8609 15.5922L72.8656 15.5976L72.8703 15.603L73.6202 14.9414ZM76.128 15.1641H77.128V13.8484L75.8603 14.2005L76.128 15.1641ZM76.128 17.9062L76.4722 18.8451L77.128 18.6047V17.9062H76.128ZM71.1241 17.2617L70.4483 17.9989L71.1241 17.2617ZM70.1514 14.332L69.1514 14.3238L69.1514 14.3263L70.1514 14.332ZM70.1983 8.66016L71.1982 8.66842L71.2066 7.66016H70.1983V8.66016ZM69.2061 8.66016V5.83594H67.2061V8.66016H69.2061ZM68.2061 6.83594H70.1983V4.83594H68.2061V6.83594ZM71.1982 5.84387L71.2217 2.89075L69.2217 2.87488L69.1983 5.828L71.1982 5.84387ZM70.2217 3.88281H73.3623V1.88281H70.2217V3.88281ZM72.3624 2.87488L72.3389 5.828L74.3389 5.84387L74.3623 2.89075L72.3624 2.87488ZM73.3389 6.83594H76.128V4.83594H73.3389V6.83594ZM75.128 5.83594V8.66016H77.128V5.83594H75.128ZM76.128 7.66016H73.3155V9.66016H76.128V7.66016ZM72.3155 8.65063L72.2686 13.5725L74.2685 13.5916L74.3154 8.66968L72.3155 8.65063ZM72.2686 13.582C72.2686 14.2902 72.3905 15.0434 72.8609 15.5922L74.3794 14.2906C74.3866 14.299 74.3561 14.2676 74.3246 14.1461C74.2931 14.0242 74.2686 13.8415 74.2686 13.582H72.2686ZM72.8703 15.603C73.3884 16.1901 74.1593 16.3398 74.8506 16.3398V14.3398C74.6274 14.3398 74.4887 14.3138 74.4116 14.2889C74.3401 14.2657 74.3452 14.2517 74.37 14.2798L72.8703 15.603ZM74.8506 16.3398C75.3725 16.3398 75.8883 16.2685 76.3956 16.1276L75.8603 14.2005C75.5239 14.294 75.1881 14.3398 74.8506 14.3398V16.3398ZM75.128 15.1641V17.9062H77.128V15.1641H75.128ZM75.7837 16.9674C75.4757 17.0803 74.955 17.1641 74.1592 17.1641V19.1641C75.0509 19.1641 75.8428 19.0759 76.4722 18.8451L75.7837 16.9674ZM74.1592 17.1641C72.9127 17.1641 72.1943 16.8862 71.7998 16.5246L70.4483 17.9989C71.3663 18.8403 72.6714 19.1641 74.1592 19.1641V17.1641ZM71.7998 16.5246C71.4393 16.1941 71.1444 15.5532 71.1514 14.3378L69.1514 14.3263C69.1428 15.814 69.4963 17.1262 70.4483 17.9989L71.7998 16.5246ZM71.1514 14.3403L71.1982 8.66842L69.1983 8.65189L69.1514 14.3238L71.1514 14.3403ZM70.1983 7.66016H68.2061V9.66016H70.1983V7.66016ZM77.327 13.2539L76.4078 12.86L76.4044 12.8681L77.327 13.2539ZM79.3075 11.5078L79.6642 12.4421L79.6731 12.4386L79.3075 11.5078ZM80.8192 11.1094L80.9814 12.0961L80.9899 12.0947L80.9984 12.0932L80.8192 11.1094ZM83.9716 10.5352L84.1508 11.519L84.9716 11.3695V10.5352H83.9716ZM83.5262 8.70703L82.7838 9.37706L82.7928 9.3868L83.5262 8.70703ZM80.4442 9.84375V10.8438H81.4442V9.84375H80.4442ZM77.4208 9.84375L76.4223 9.78828L76.3637 10.8438H77.4208V9.84375ZM78.827 6.76172L79.5 7.50136L79.5004 7.50106L78.827 6.76172ZM85.788 6.70312L85.1299 7.45613L85.1338 7.45949L85.788 6.70312ZM87.0887 18V19H88.0887V18H87.0887ZM84.4286 18L83.4374 18.1327L83.5535 19H84.4286V18ZM84.2294 16.5117L85.2205 16.379L84.8636 13.7126L83.3922 15.9648L84.2294 16.5117ZM78.077 17.3203L77.3956 18.0522L77.3998 18.0561L78.077 17.3203ZM80.5497 15.375L79.8912 16.1276L79.8979 16.1335L79.9048 16.1393L80.5497 15.375ZM82.6942 15.4102L83.1731 16.2881L83.1799 16.2843L82.6942 15.4102ZM83.538 14.5898L82.7036 14.0386L82.6917 14.0567L82.6805 14.0753L83.538 14.5898ZM83.9716 12.6211H84.9716V11.392L83.7682 11.642L83.9716 12.6211ZM81.5458 13.125L81.3424 12.1459L81.3329 12.1479L81.3234 12.15L81.5458 13.125ZM78.0575 14.7656C78.0575 14.289 78.1317 13.9216 78.2496 13.6397L76.4044 12.8681C76.1629 13.4456 76.0575 14.086 76.0575 14.7656H78.0575ZM78.2462 13.6478C78.3727 13.3526 78.5446 13.1292 78.7603 12.9566L77.5109 11.3949C77.0235 11.7849 76.6564 12.2802 76.4079 12.86L78.2462 13.6478ZM78.7603 12.9566C79.0293 12.7415 79.3291 12.57 79.6642 12.442L78.9508 10.5736C78.4265 10.7738 77.9451 11.0476 77.5109 11.3949L78.7603 12.9566ZM79.6731 12.4386C80.0321 12.2976 80.4655 12.1809 80.9814 12.0961L80.657 10.1226C80.0323 10.2253 79.4579 10.3743 78.9418 10.5771L79.6731 12.4386ZM80.9984 12.0932L84.1508 11.519L83.7924 9.55134L80.64 10.1256L80.9984 12.0932ZM84.9716 10.5352V10.0781H82.9716V10.5352H84.9716ZM84.9716 10.0781C84.9716 9.32421 84.7816 8.59035 84.2597 8.02727L82.7928 9.3868C82.8647 9.46433 82.9716 9.64454 82.9716 10.0781H84.9716ZM84.2686 8.03707C83.7391 7.45031 83.0123 7.22656 82.2606 7.22656V9.22656C82.6183 9.22656 82.7352 9.32313 82.7839 9.377L84.2686 8.03707ZM82.2606 7.22656C81.536 7.22656 80.859 7.43769 80.3062 7.91505L81.6135 9.4287C81.7482 9.31231 81.9384 9.22656 82.2606 9.22656V7.22656ZM80.3062 7.91505C79.7265 8.41576 79.4442 9.09067 79.4442 9.84375H81.4442C81.4442 9.62808 81.5057 9.52174 81.6135 9.4287L80.3062 7.91505ZM80.4442 8.84375H77.4208V10.8438H80.4442V8.84375ZM78.4192 9.89922C78.4763 8.87211 78.8435 8.09871 79.5 7.50136L78.154 6.02208C77.0761 7.00285 76.5059 8.28414 76.4223 9.78828L78.4192 9.89922ZM79.5004 7.50106C80.1565 6.90349 81.0443 6.56641 82.2606 6.56641V4.56641C80.6488 4.56641 79.2475 5.0262 78.1537 6.02238L79.5004 7.50106ZM82.2606 6.56641C83.5746 6.56641 84.4925 6.89911 85.1299 7.45612L86.446 5.95013C85.349 4.99152 83.9153 4.56641 82.2606 4.56641V6.56641ZM85.1338 7.45949C85.7252 7.97094 86.0887 8.76146 86.0887 10.0078H88.0887C88.0887 8.34791 87.5851 6.93531 86.4421 5.94676L85.1338 7.45949ZM86.0887 10.0078V18H88.0887V10.0078H86.0887ZM87.0887 17H84.4286V19H87.0887V17ZM85.4197 17.8673L85.2205 16.379L83.2382 16.6444L83.4374 18.1327L85.4197 17.8673ZM83.3922 15.9648C82.8342 16.8189 82.0101 17.2695 80.7489 17.2695V19.2695C82.5971 19.2695 84.0933 18.5483 85.0665 17.0587L83.3922 15.9648ZM80.7489 17.2695C79.8605 17.2695 79.2262 17.0189 78.7543 16.5845L77.3998 18.0561C78.3029 18.8873 79.4498 19.2695 80.7489 19.2695V17.2695ZM78.7584 16.5884C78.3136 16.1742 78.0575 15.6047 78.0575 14.7656H76.0575C76.0575 16.0671 76.4811 17.2008 77.3956 18.0522L78.7584 16.5884ZM79.1747 14.4961C79.1747 15.1176 79.3998 15.6976 79.8912 16.1276L81.2082 14.6224C81.1982 14.6137 81.1938 14.6081 81.1922 14.6059C81.1907 14.6039 81.1896 14.602 81.1882 14.5988C81.1861 14.5939 81.1747 14.5652 81.1747 14.4961H79.1747ZM79.9048 16.1393C80.3912 16.5497 80.9967 16.6914 81.5927 16.6914V14.6914C81.298 14.6914 81.2082 14.6222 81.1946 14.6107L79.9048 16.1393ZM81.5927 16.6914C82.151 16.6914 82.6828 16.5555 83.1731 16.2881L82.2154 14.5323C82.0181 14.6398 81.8155 14.6914 81.5927 14.6914V16.6914ZM83.1799 16.2843C83.6879 16.0021 84.0961 15.6033 84.3955 15.1043L82.6805 14.0753C82.558 14.2795 82.4037 14.4276 82.2086 14.536L83.1799 16.2843ZM84.3723 15.1411C84.79 14.5089 84.9716 13.7722 84.9716 12.9844H82.9716C82.9716 13.4622 82.864 13.7958 82.7036 14.0386L84.3723 15.1411ZM84.9716 12.9844V12.6211H82.9716V12.9844H84.9716ZM83.7682 11.642L81.3424 12.1459L81.7492 14.1041L84.1749 13.6002L83.7682 11.642ZM81.3234 12.15C80.7816 12.2736 80.2626 12.4857 79.8573 12.8505L81.1952 14.337C81.2587 14.2799 81.4193 14.1795 81.7681 14.1L81.3234 12.15ZM79.8573 12.8505C79.3634 13.2949 79.1747 13.8949 79.1747 14.4961H81.1747C81.1747 14.3996 81.1892 14.3537 81.1944 14.3406C81.1968 14.3342 81.198 14.3332 81.1967 14.3351C81.1953 14.337 81.1942 14.3379 81.1952 14.337L79.8573 12.8505ZM89.3073 18H88.3073V19H89.3073V18ZM89.3073 0.480469V-0.519531H88.3073V0.480469H89.3073ZM92.4362 0.480469H93.4362V-0.519531H92.4362V0.480469ZM92.4362 18V19H93.4362V18H92.4362ZM90.3073 18V0.480469H88.3073V18H90.3073ZM89.3073 1.48047H92.4362V-0.519531H89.3073V1.48047ZM91.4362 0.480469V18H93.4362V0.480469H91.4362ZM92.4362 17H89.3073V19H92.4362V17ZM94.9595 18H93.9595V19H94.9595V18ZM94.9595 0.480469V-0.519531H93.9595V0.480469H94.9595ZM98.0884 0.480469H99.0884V-0.519531H98.0884V0.480469ZM98.0884 10.7578H97.0884V13.8532L98.8994 11.3429L98.0884 10.7578ZM101.639 5.83594V4.83594H101.128L100.828 5.25087L101.639 5.83594ZM105.354 5.83594L106.173 6.40915L107.274 4.83594H105.354V5.83594ZM101.78 10.9453L100.96 10.3721L100.59 10.9013L100.92 11.4564L101.78 10.9453ZM105.975 18V19H107.733L106.835 17.4889L105.975 18ZM102.424 18L101.57 18.5189L101.862 19H102.424V18ZM99.6002 13.3477L100.455 12.8287L99.7062 11.5953L98.8142 12.7294L99.6002 13.3477ZM98.0884 15.2695L97.3025 14.6513L97.0884 14.9234V15.2695H98.0884ZM98.0884 18V19H99.0884V18H98.0884ZM95.9595 18V0.480469H93.9595V18H95.9595ZM94.9595 1.48047H98.0884V-0.519531H94.9595V1.48047ZM97.0884 0.480469V10.7578H99.0884V0.480469H97.0884ZM98.8994 11.3429L102.45 6.42101L100.828 5.25087L97.2775 10.1727L98.8994 11.3429ZM101.639 6.83594H105.354V4.83594H101.639V6.83594ZM104.535 5.26273L100.96 10.3721L102.599 11.5185L106.173 6.40915L104.535 5.26273ZM100.92 11.4564L105.116 18.5111L106.835 17.4889L102.639 10.4342L100.92 11.4564ZM105.975 17H102.424V19H105.975V17ZM103.279 17.4811L100.455 12.8287L98.7453 13.8666L101.57 18.5189L103.279 17.4811ZM98.8142 12.7294L97.3025 14.6513L98.8744 15.8878L100.386 13.9659L98.8142 12.7294ZM97.0884 15.2695V18H99.0884V15.2695H97.0884ZM98.0884 17H94.9595V19H98.0884V17Z" fill="black"/>
</g>
<defs>
<filter id="filter0_d_1_11" x="0.269531" y="0.410156" width="109.706" height="25.8594" filterUnits="userSpaceOnUse" color-interpolation-filters="sRGB">
<feFlood flood-opacity="0" result="BackgroundImageFix"/>
<feColorMatrix in="SourceAlpha" type="matrix" values="0 0 0 0 0 0 0 0 0 0 0 0 0 0 0 0 0 0 127 0" result="hardAlpha"/>
<feOffset dy="4"/>
<feGaussianBlur stdDeviation="2"/>
<feComposite in2="hardAlpha" operator="out"/>
<feColorMatrix type="matrix" values="0 0 0 0 0 0 0 0 0 0 0 0 0 0 0 0 0 0 0.25 0"/>
<feBlend mode="normal" in2="BackgroundImageFix" result="effect1_dropShadow_1_11"/>
<feBlend mode="normal" in="SourceGraphic" in2="effect1_dropShadow_1_11" result="shape"/>
</filter>
</defs>
</svg>
